<svg width="374" height="250" viewBox="0 0 374 250" fill="none" xmlns="http://www.w3.org/2000/svg">
<g clip-path="url(#clip0)">
<g opacity="0.2">
<path opacity="0.2" d="M129.603 229.8C129.791 230.568 130.04 231.32 130.348 232.048C135.141 230.165 139.987 228.361 144.886 226.634C144.845 226.431 144.803 226.217 144.752 226.007C144.258 223.838 143.205 221.835 141.697 220.2C139.738 218.131 137.214 217.131 134.759 217.741C132.303 218.352 130.521 220.441 129.707 223.19C129.098 225.347 129.063 227.625 129.603 229.8V229.8Z" fill="#3F3D56"/>
<path opacity="0.2" d="M136.49 225.687C140.698 224.747 143.09 219.421 141.833 213.791C140.575 208.161 136.145 204.359 131.937 205.299C127.729 206.239 125.337 211.565 126.594 217.195C127.852 222.824 132.282 226.626 136.49 225.687Z" fill="#3F3D56"/>
<path opacity="0.2" d="M133.537 213.267C137.745 212.327 140.137 207.002 138.88 201.372C137.622 195.742 133.192 191.94 128.984 192.88C124.776 193.82 122.384 199.145 123.642 204.775C124.899 210.405 129.329 214.207 133.537 213.267Z" fill="#3F3D56"/>
<path opacity="0.2" d="M130.579 200.855C134.787 199.916 137.178 194.59 135.921 188.96C134.664 183.33 130.233 179.528 126.025 180.468C121.817 181.408 119.425 186.734 120.683 192.363C121.94 197.993 126.371 201.795 130.579 200.855Z" fill="#3F3D56"/>
<path opacity="0.2" d="M127.62 188.44C131.828 187.5 134.22 182.175 132.962 176.545C131.705 170.915 127.274 167.113 123.066 168.053C118.858 168.993 116.466 174.318 117.724 179.948C118.981 185.578 123.412 189.38 127.62 188.44Z" fill="#3F3D56"/>
<path opacity="0.2" d="M133.462 86.1862C134.179 84.5768 134.785 82.92 135.276 81.2276L114.586 82.8552L136.152 77.6379C137.182 72.2147 137.052 66.6347 135.769 61.2655C134.644 56.5123 132.628 52.0156 129.828 48.0138L104.586 70.5827L126.438 43.8689C117.517 34.3448 104.024 29.8138 90.6138 33.1793C70.5758 38.1896 58.2965 58.8931 63.1862 79.4207C65.1298 87.7122 69.7894 95.116 76.4241 100.455C75.3094 102.961 74.4622 105.578 73.8965 108.262L103.007 115.552L73.2069 112.969C72.8504 117.13 73.1624 121.321 74.131 125.383C76.078 133.674 80.7384 141.077 87.3724 146.417C83.886 154.245 83.0812 163.006 85.0827 171.338C89.9724 191.866 110.179 204.441 130.217 199.434C150.255 194.428 162.534 173.724 157.645 153.197C155.698 144.906 151.037 137.502 144.403 132.162C147.89 124.334 148.695 115.574 146.693 107.241C144.755 98.9436 140.097 91.5323 133.462 86.1862Z" fill="#39D0FF"/>
<path opacity="0.1" d="M74.1379 125.369C76.0849 133.66 80.7452 141.063 87.3793 146.403C83.8929 154.232 83.088 162.992 85.0896 171.324C89.9792 191.852 110.186 204.428 130.224 199.421C150.262 194.414 162.541 173.71 157.652 153.183C155.705 144.892 151.044 137.489 144.41 132.148C147.769 124.61 73.1448 121.207 74.1379 125.369Z" fill="black"/>
</g>
<g opacity="0.2">
<path opacity="0.2" d="M222.6 226.01C222.474 226.908 222.425 227.815 222.452 228.721C228.463 228.817 234.498 229.02 240.555 229.328C240.597 229.09 240.638 228.848 240.672 228.603C241.063 226.075 240.771 223.488 239.828 221.11C238.579 218.069 236.252 215.893 233.338 215.472C230.424 215.052 227.583 216.486 225.531 219.045C223.951 221.064 222.939 223.469 222.6 226.01Z" fill="#3F3D56"/>
<path opacity="0.2" d="M242.764 214.157C243.704 207.623 240.418 201.745 235.427 201.027C230.435 200.31 225.627 205.025 224.688 211.558C223.749 218.092 227.034 223.97 232.026 224.688C237.017 225.405 241.825 220.69 242.764 214.157Z" fill="#3F3D56"/>
<path opacity="0.2" d="M244.842 199.697C245.781 193.163 242.496 187.285 237.504 186.567C232.513 185.85 227.705 190.565 226.766 197.098C225.826 203.632 229.112 209.51 234.103 210.228C239.095 210.945 243.903 206.23 244.842 199.697Z" fill="#3F3D56"/>
<path opacity="0.2" d="M246.919 185.24C247.858 178.706 244.573 172.828 239.581 172.11C234.59 171.393 229.782 176.108 228.843 182.641C227.903 189.175 231.189 195.053 236.18 195.771C241.172 196.488 245.98 191.773 246.919 185.24Z" fill="#3F3D56"/>
<path opacity="0.2" d="M249 170.78C249.939 164.246 246.654 158.368 241.662 157.651C236.67 156.933 231.863 161.648 230.923 168.182C229.984 174.715 233.269 180.593 238.261 181.311C243.253 182.029 248.061 177.314 249 170.78Z" fill="#3F3D56"/>
<path opacity="0.2" d="M288 75.3862C289.462 73.9892 290.824 72.4912 292.076 70.9034L268.893 63.6207L294.545 67.5C297.778 62.4936 299.956 56.8804 300.945 51.0035C301.935 45.1267 301.715 39.1098 300.3 33.3207L263.279 46.231L298.41 27.4379C296.173 21.8658 292.812 16.8142 288.537 12.5977C284.262 8.38127 279.164 5.09029 273.562 2.92985C267.959 0.769396 261.972 -0.214245 255.973 0.0402021C249.973 0.29465 244.091 1.78173 238.691 4.40881C233.292 7.03589 228.491 10.7467 224.589 15.31C220.686 19.8733 217.765 25.1914 216.007 30.933C214.249 36.6745 213.693 42.7165 214.372 48.6825C215.051 54.6486 216.952 60.4108 219.955 65.6103C217.684 67.7805 215.653 70.1886 213.897 72.7931L242.417 93.2345L211.138 77.4828C207.847 83.9721 206.227 91.1795 206.423 98.4528C206.62 105.726 208.626 112.836 212.262 119.138C206.322 124.801 202.096 132.021 200.066 139.973C198.036 147.925 198.285 156.288 200.784 164.105C203.283 171.922 207.931 178.878 214.197 184.178C220.463 189.478 228.094 192.908 236.217 194.075C244.341 195.243 252.629 194.101 260.134 190.78C267.639 187.459 274.058 182.094 278.657 175.297C283.256 168.5 285.85 160.546 286.142 152.344C286.433 144.142 284.411 136.024 280.307 128.917C287.406 122.149 292.023 113.192 293.419 103.483C294.814 93.7749 292.905 83.8794 288 75.3862V75.3862Z" fill="#39D0FF"/>
<path opacity="0.1" d="M206.845 91.0414C205.435 100.75 207.344 110.65 212.262 119.138C206.322 124.801 202.096 132.021 200.066 139.973C198.036 147.925 198.285 156.288 200.784 164.105C203.283 171.922 207.931 178.878 214.197 184.178C220.463 189.478 228.094 192.908 236.217 194.075C244.341 195.243 252.629 194.101 260.134 190.78C267.639 187.459 274.058 182.094 278.657 175.297C283.256 168.5 285.85 160.545 286.142 152.344C286.433 144.142 284.411 136.024 280.307 128.917C287.169 122.383 207.545 86.1828 206.845 91.0414Z" fill="black"/>
</g>
<path opacity="0.1" d="M187 250C290.03 250 373.552 245.214 373.552 239.31C373.552 233.407 290.03 228.621 187 228.621C83.9703 228.621 0.448242 233.407 0.448242 239.31C0.448242 245.214 83.9703 250 187 250Z" fill="#39D0FF"/>
<path d="M308.965 235.003C313.784 235.003 317.69 234.252 317.69 233.324C317.69 232.397 313.784 231.645 308.965 231.645C304.147 231.645 300.241 232.397 300.241 233.324C300.241 234.252 304.147 235.003 308.965 235.003Z" fill="#39D0FF"/>
<path d="M308.821 233.945C309.382 233.945 309.838 233.349 309.838 232.614C309.838 231.879 309.382 231.283 308.821 231.283C308.259 231.283 307.803 231.879 307.803 232.614C307.803 233.349 308.259 233.945 308.821 233.945Z" fill="#3F3D56"/>
<path d="M308.821 232.317C309.382 232.317 309.838 231.721 309.838 230.986C309.838 230.251 309.382 229.655 308.821 229.655C308.259 229.655 307.803 230.251 307.803 230.986C307.803 231.721 308.259 232.317 308.821 232.317Z" fill="#3F3D56"/>
<path d="M308.821 230.693C309.382 230.693 309.838 230.097 309.838 229.362C309.838 228.627 309.382 228.031 308.821 228.031C308.259 228.031 307.803 228.627 307.803 229.362C307.803 230.097 308.259 230.693 308.821 230.693Z" fill="#3F3D56"/>
<path d="M308.821 229.069C309.382 229.069 309.838 228.473 309.838 227.738C309.838 227.003 309.382 226.407 308.821 226.407C308.259 226.407 307.803 227.003 307.803 227.738C307.803 228.473 308.259 229.069 308.821 229.069Z" fill="#3F3D56"/>
<path d="M308.821 227.441C309.382 227.441 309.838 226.845 309.838 226.11C309.838 225.375 309.382 224.779 308.821 224.779C308.259 224.779 307.803 225.375 307.803 226.11C307.803 226.845 308.259 227.441 308.821 227.441Z" fill="#3F3D56"/>
<path d="M308.821 225.817C309.382 225.817 309.838 225.221 309.838 224.486C309.838 223.751 309.382 223.155 308.821 223.155C308.259 223.155 307.803 223.751 307.803 224.486C307.803 225.221 308.259 225.817 308.821 225.817Z" fill="#3F3D56"/>
<path d="M308.821 224.193C309.382 224.193 309.838 223.597 309.838 222.862C309.838 222.127 309.382 221.531 308.821 221.531C308.259 221.531 307.803 222.127 307.803 222.862C307.803 223.597 308.259 224.193 308.821 224.193Z" fill="#3F3D56"/>
<path d="M312.621 211.741C312.76 211.565 312.887 211.378 313 211.183L310.331 210.745L313.217 210.765C313.494 210.163 313.644 209.51 313.66 208.847C313.676 208.185 313.557 207.526 313.31 206.91L309.438 208.921L313.01 206.293C312.677 205.712 312.227 205.205 311.689 204.806C311.151 204.406 310.536 204.122 309.883 203.971C309.23 203.82 308.553 203.805 307.894 203.928C307.235 204.051 306.609 204.308 306.054 204.684C305.499 205.06 305.028 205.547 304.67 206.113C304.312 206.68 304.075 207.314 303.973 207.977C303.872 208.639 303.908 209.315 304.08 209.963C304.252 210.611 304.556 211.216 304.972 211.741C304.757 212.016 304.571 212.313 304.417 212.628L307.865 214.428L304.172 213.186C303.914 213.955 303.851 214.775 303.991 215.574C304.131 216.373 304.468 217.124 304.972 217.759C304.408 218.476 304.057 219.338 303.959 220.246C303.861 221.154 304.021 222.071 304.42 222.892C304.819 223.714 305.441 224.406 306.215 224.891C306.989 225.375 307.883 225.632 308.797 225.632C309.71 225.632 310.604 225.375 311.378 224.891C312.152 224.406 312.774 223.714 313.173 222.892C313.572 222.071 313.732 221.154 313.634 220.246C313.536 219.338 313.185 218.476 312.621 217.759C313.295 216.901 313.662 215.842 313.662 214.752C313.662 213.661 313.295 212.602 312.621 211.745V211.741Z" fill="#39D0FF"/>
<path opacity="0.1" d="M303.931 214.748C303.928 215.838 304.292 216.898 304.965 217.755C304.401 218.473 304.05 219.335 303.952 220.243C303.854 221.151 304.014 222.068 304.413 222.889C304.812 223.71 305.434 224.403 306.208 224.887C306.982 225.372 307.877 225.629 308.79 225.629C309.703 225.629 310.597 225.372 311.371 224.887C312.145 224.403 312.767 223.71 313.166 222.889C313.565 222.068 313.725 221.151 313.627 220.243C313.53 219.335 313.178 218.473 312.614 217.755C313.272 216.928 303.931 214.203 303.931 214.748Z" fill="black"/>
<path d="M108.621 248.51C115.058 248.51 120.276 247.507 120.276 246.269C120.276 245.031 115.058 244.028 108.621 244.028C102.184 244.028 96.9655 245.031 96.9655 246.269C96.9655 247.507 102.184 248.51 108.621 248.51Z" fill="#39D0FF"/>
<path d="M108.424 247.093C109.174 247.093 109.783 246.298 109.783 245.317C109.783 244.336 109.174 243.541 108.424 243.541C107.674 243.541 107.065 244.336 107.065 245.317C107.065 246.298 107.674 247.093 108.424 247.093Z" fill="#3F3D56"/>
<path d="M108.424 244.921C109.174 244.921 109.783 244.126 109.783 243.145C109.783 242.164 109.174 241.369 108.424 241.369C107.674 241.369 107.065 242.164 107.065 243.145C107.065 244.126 107.674 244.921 108.424 244.921Z" fill="#3F3D56"/>
<path d="M108.424 242.748C109.174 242.748 109.783 241.953 109.783 240.972C109.783 239.992 109.174 239.197 108.424 239.197C107.674 239.197 107.065 239.992 107.065 240.972C107.065 241.953 107.674 242.748 108.424 242.748Z" fill="#3F3D56"/>
<path d="M108.424 240.579C109.174 240.579 109.783 239.784 109.783 238.803C109.783 237.823 109.174 237.028 108.424 237.028C107.674 237.028 107.065 237.823 107.065 238.803C107.065 239.784 107.674 240.579 108.424 240.579Z" fill="#3F3D56"/>
<path d="M108.424 238.407C109.174 238.407 109.783 237.612 109.783 236.631C109.783 235.65 109.174 234.855 108.424 234.855C107.674 234.855 107.065 235.65 107.065 236.631C107.065 237.612 107.674 238.407 108.424 238.407Z" fill="#3F3D56"/>
<path d="M108.424 236.234C109.174 236.234 109.783 235.439 109.783 234.459C109.783 233.478 109.174 232.683 108.424 232.683C107.674 232.683 107.065 233.478 107.065 234.459C107.065 235.439 107.674 236.234 108.424 236.234Z" fill="#3F3D56"/>
<path d="M108.424 234.066C109.174 234.066 109.783 233.27 109.783 232.29C109.783 231.309 109.174 230.514 108.424 230.514C107.674 230.514 107.065 231.309 107.065 232.29C107.065 233.27 107.674 234.066 108.424 234.066Z" fill="#3F3D56"/>
<path d="M113.507 217.431C113.691 217.194 113.859 216.945 114.01 216.686L110.448 216.1L114.303 216.131C114.674 215.326 114.877 214.454 114.898 213.568C114.919 212.682 114.759 211.801 114.428 210.979L109.255 213.662L114.024 210.172C113.575 209.404 112.973 208.735 112.255 208.209C111.537 207.682 110.719 207.309 109.851 207.111C108.983 206.914 108.083 206.897 107.208 207.062C106.333 207.227 105.502 207.569 104.765 208.069C104.028 208.568 103.401 209.214 102.924 209.965C102.447 210.717 102.129 211.558 101.99 212.438C101.851 213.317 101.895 214.216 102.118 215.078C102.341 215.939 102.738 216.746 103.286 217.448C102.998 217.817 102.75 218.214 102.545 218.634L107.176 221.048L102.238 219.393C101.89 220.416 101.803 221.51 101.984 222.576C102.164 223.641 102.607 224.645 103.272 225.497C102.519 226.455 102.05 227.607 101.92 228.82C101.79 230.032 102.003 231.257 102.536 232.354C103.069 233.451 103.9 234.376 104.934 235.023C105.968 235.67 107.163 236.013 108.383 236.013C109.602 236.013 110.797 235.67 111.831 235.023C112.865 234.376 113.696 233.451 114.229 232.354C114.762 231.257 114.976 230.032 114.846 228.82C114.715 227.607 114.247 226.455 113.493 225.497C114.393 224.35 114.883 222.935 114.883 221.478C114.883 220.02 114.393 218.605 113.493 217.459L113.507 217.431Z" fill="#39D0FF"/>
<path opacity="0.1" d="M101.897 221.448C101.892 222.905 102.378 224.321 103.276 225.469C102.522 226.428 102.053 227.579 101.923 228.792C101.793 230.005 102.007 231.23 102.54 232.327C103.073 233.424 103.904 234.348 104.938 234.996C105.972 235.643 107.167 235.986 108.386 235.986C109.606 235.986 110.801 235.643 111.835 234.996C112.869 234.348 113.699 233.424 114.233 232.327C114.766 231.23 114.979 230.005 114.849 228.792C114.719 227.579 114.25 226.428 113.497 225.469C114.376 224.362 101.897 220.721 101.897 221.448Z" fill="black"/>
<path d="M169.986 147.562C169.107 142.962 168.124 138.352 167.962 133.672C167.865 130.914 168.059 128.107 167.703 125.355C167.528 124.003 167.221 122.676 166.917 121.348L165.696 116.034C165.835 115.016 165.795 113.981 165.579 112.976C165.457 112.446 165.294 111.926 165.093 111.421C166.233 109.817 167.172 108.08 167.89 106.248C168.214 105.421 168.493 104.541 168.365 103.666C168.117 101.986 166.49 100.879 164.976 100.052C164.059 99.5517 163.093 99.069 162.045 98.9896C161.312 98.9601 160.582 99.1004 159.912 99.3994C159.242 99.6985 158.65 100.148 158.183 100.714C157.928 99.3543 158.013 97.953 158.431 96.6345C157.531 96.231 156.624 95.8517 155.71 95.4827C155.578 94.2911 155.532 93.0914 155.572 91.8931C155.593 90.4552 155.617 89.0034 155.7 87.5621C158.152 86.6671 160.272 85.0434 161.775 82.9088C163.277 80.7743 164.091 78.2311 164.107 75.6207C164.107 75.4724 164.107 75.3276 164.107 75.1828C164.775 73.9813 165.198 72.659 165.351 71.2928C165.503 69.9265 165.383 68.5435 164.996 67.2241C163.986 63.7759 161.345 60.9345 158.162 59.1793C154.979 57.4241 151.29 56.6828 147.638 56.5517C146.412 56.48 145.183 56.5576 143.976 56.7828C142.684 57.1006 141.433 57.5633 140.245 58.1621C138.421 59.0034 136.583 59.9241 135.217 61.3759C132.848 63.9034 132.317 67.6172 132.576 71.031C132.921 75.5138 134.417 79.8517 136.148 84.0241C136.724 85.4034 137.338 86.8034 138.286 87.9793C139.021 88.8862 140.296 88.9414 141.31 88.3069C141.23 89.4084 141.204 90.5132 141.234 91.6172C139.362 91.5517 137.538 91.8586 136.034 92.9138C135.345 93.4069 134.69 94.1827 134.841 95.0172C135.302 95.0295 135.743 95.204 136.088 95.51C136.432 95.8159 136.658 96.2337 136.724 96.6896C136.8 97.4241 136.431 98.1241 136.072 98.7586C135.917 99.0414 135.762 99.3276 135.603 99.6103C134.121 101.197 132.6 103.183 132.465 105.152C132.224 105.175 131.983 105.21 131.745 105.259C130.4 105.507 129.062 105.966 127.741 106.31L118.183 108.828L115.821 109.483L112.028 110.483C109.614 111.117 107.155 111.769 105.014 113.045C102.872 114.321 101.055 116.324 100.624 118.738C100.41 119.938 100.541 121.186 100.279 122.376C100.279 122.431 100.259 122.483 100.245 122.534C100.026 123.288 99.7311 124.017 99.3655 124.71C97.2241 129.224 95.6999 134.145 95.9861 139.114C96.162 142.165 97.0206 145.141 97.8551 148.079C98.731 151.084 99.5953 154.088 100.448 157.093C101.011 159.244 101.724 161.353 102.583 163.403C104.054 166.688 106.236 169.606 108.972 171.945C109.74 172.633 110.599 173.214 111.524 173.669C112.935 174.279 114.475 174.529 116.007 174.397C116.421 174.369 116.828 174.324 117.231 174.259C120.193 173.79 122.955 172.362 125.49 170.755C126.549 170.084 127.584 169.377 128.593 168.634C128.721 169.793 128.952 170.938 129.283 172.055C129.507 172.824 129.783 173.614 129.693 174.41C129.569 175.521 128.762 176.431 128.345 177.472C127.459 179.672 128.369 182.124 128.517 184.483C128.659 186.693 128.121 188.886 127.69 191.062C126.97 194.691 126.544 198.372 126.417 202.069C126.413 203.469 126.321 204.867 126.141 206.255C125.821 208.214 125.069 210.103 124.938 212.083C124.738 215.165 126.069 218.183 125.948 221.269C125.807 224.893 123.679 228.414 124.421 231.959C124.514 232.403 124.765 232.917 125.172 233.031L124.972 233.214C124.362 233.779 123.769 234.824 124.462 235.283C124.621 235.378 124.799 235.439 124.983 235.462C126.055 235.686 127.134 235.89 128.214 236.079C128.19 237.076 128.316 238.071 128.586 239.031C128.783 239.172 128.983 239.3 129.183 239.421C129.031 239.828 129.041 240.221 129.4 240.455C129.559 240.55 129.737 240.611 129.921 240.634C138.803 242.467 147.875 243.22 156.938 242.876C158.559 242.814 160.252 242.697 161.634 241.869C163.017 241.041 163.952 239.279 163.293 237.828C162.71 236.545 161.186 235.99 159.817 235.562L158.21 235.065C158.416 234.701 158.536 234.294 158.561 233.875C158.586 233.457 158.516 233.039 158.355 232.652C157.772 231.369 156.248 230.814 154.879 230.386L151.179 229.238C150.692 229.122 150.234 228.908 149.834 228.607C149.569 228.343 149.325 228.06 149.103 227.759C148.569 227.148 147.868 226.708 147.086 226.493C147.045 225.709 147.062 224.923 147.138 224.141L148.172 211.655C148.403 208.828 148.631 205.945 147.972 203.183C147.707 202.062 147.283 200.914 147.541 199.79C147.945 197.955 149.876 196.934 151.193 195.572C153.179 193.503 153.796 190.562 154.252 187.762C156.137 176.207 156.729 164.479 156.017 152.793C160.157 151.626 164.417 150.941 168.714 150.752C169.445 150.721 169.803 150.376 170.031 149.693C170.259 149.01 170.121 148.269 169.986 147.562ZM149.348 148.172C149.372 148.052 149.4 147.931 149.421 147.81L149.707 148.176L149.348 148.172Z" fill="url(#paint0_linear)"/>
<path d="M142.624 84.8793C142.534 86.0793 142.11 87.231 141.955 88.4276C141.779 89.7448 141.934 91.0862 141.848 92.4138C141.762 93.7414 141.379 95.138 140.369 96.0035C146.241 96.512 152.025 97.7634 157.583 99.7276C155.903 97.6586 155.859 94.769 155.9 92.1138C155.955 88.1862 156.024 84.1828 157.307 80.4759C153.481 79.6207 149.519 79.569 145.672 80.3241C144.838 80.4897 142.31 80.3862 141.934 81.1655C141.662 81.7379 142.686 84.0104 142.624 84.8793Z" fill="#A1616A"/>
<path opacity="0.1" d="M142.624 84.8793C142.534 86.0793 142.11 87.231 141.955 88.4276C141.779 89.7448 141.934 91.0862 141.848 92.4138C141.762 93.7414 141.379 95.138 140.369 96.0035C146.241 96.512 152.025 97.7634 157.583 99.7276C155.903 97.6586 155.859 94.769 155.9 92.1138C155.955 88.1862 156.024 84.1828 157.307 80.4759C153.481 79.6207 149.519 79.569 145.672 80.3241C144.838 80.4897 142.31 80.3862 141.934 81.1655C141.662 81.7379 142.686 84.0104 142.624 84.8793Z" fill="black"/>
<path d="M149.576 227.776C149.783 228.082 150.014 228.371 150.265 228.641C150.654 228.942 151.102 229.157 151.579 229.272L155.193 230.421C156.534 230.848 158.024 231.4 158.593 232.683C159.234 234.131 158.321 235.893 156.969 236.717C155.617 237.541 153.962 237.662 152.379 237.724C143.517 238.066 134.647 237.314 125.969 235.486C125.79 235.46 125.618 235.399 125.462 235.307C124.772 234.841 125.362 233.8 125.959 233.238C128.286 231.031 130.817 228.717 133.986 228.207C135.652 227.934 137.324 228.045 138.979 227.648C140.169 227.362 141.293 226.869 142.479 226.576C144.69 226.034 147.996 225.841 149.576 227.776Z" fill="#46455B"/>
<path opacity="0.1" d="M149.576 227.776C149.783 228.082 150.014 228.371 150.265 228.641C150.654 228.942 151.102 229.157 151.579 229.272L155.193 230.421C156.534 230.848 158.024 231.4 158.593 232.683C159.234 234.131 158.321 235.893 156.969 236.717C155.617 237.541 153.962 237.662 152.379 237.724C143.517 238.066 134.647 237.314 125.969 235.486C125.79 235.46 125.618 235.399 125.462 235.307C124.772 234.841 125.362 233.8 125.959 233.238C128.286 231.031 130.817 228.717 133.986 228.207C135.652 227.934 137.324 228.045 138.979 227.648C140.169 227.362 141.293 226.869 142.479 226.576C144.69 226.034 147.996 225.841 149.576 227.776Z" fill="black"/>
<path d="M131.431 149.783C129.648 154.488 129.538 159.664 131.121 164.441C129.917 164.31 129.396 165.938 129.428 167.152C129.47 168.842 129.726 170.519 130.19 172.145C130.41 172.917 130.679 173.703 130.593 174.497C130.469 175.607 129.683 176.517 129.272 177.555C128.41 179.752 129.296 182.2 129.445 184.555C129.583 186.766 129.055 188.955 128.631 191.128C127.928 194.752 127.513 198.427 127.39 202.117C127.387 203.516 127.296 204.913 127.117 206.3C126.807 208.259 126.083 210.145 125.945 212.121C125.748 215.197 127.048 218.214 126.931 221.297C126.793 224.914 124.71 228.431 125.438 231.986C125.541 232.486 125.821 233.076 126.334 233.083C131.534 233.148 136.393 231.703 141.538 232.459C142.062 220.555 142.572 208.597 144.917 196.91C146.986 186.507 150.493 176.221 150.165 165.614C149.976 159.548 148.534 153.6 147.659 147.593C142.161 146.372 136.408 147.149 131.431 149.783V149.783Z" fill="#BBBDC8"/>
<path opacity="0.1" d="M131.431 149.783C129.648 154.488 129.538 159.664 131.121 164.441C129.917 164.31 129.396 165.938 129.428 167.152C129.47 168.842 129.726 170.519 130.19 172.145C130.41 172.917 130.679 173.703 130.593 174.497C130.469 175.607 129.683 176.517 129.272 177.555C128.41 179.752 129.296 182.2 129.445 184.555C129.583 186.766 129.055 188.955 128.631 191.128C127.928 194.752 127.513 198.427 127.39 202.117C127.387 203.516 127.296 204.913 127.117 206.3C126.807 208.259 126.083 210.145 125.945 212.121C125.748 215.197 127.048 218.214 126.931 221.297C126.793 224.914 124.71 228.431 125.438 231.986C125.541 232.486 125.821 233.076 126.334 233.083C131.534 233.148 136.393 231.703 141.538 232.459C142.062 220.555 142.572 208.597 144.917 196.91C146.986 186.507 150.493 176.221 150.165 165.614C149.976 159.548 148.534 153.6 147.659 147.593C142.161 146.372 136.408 147.149 131.431 149.783V149.783Z" fill="black"/>
<path d="M154.403 232.948C154.611 233.254 154.841 233.544 155.093 233.814C155.481 234.115 155.929 234.33 156.407 234.445L160.021 235.593C161.362 236.021 162.852 236.572 163.421 237.855C164.062 239.303 163.148 241.066 161.797 241.89C160.445 242.714 158.79 242.834 157.207 242.897C148.345 243.238 139.475 242.486 130.797 240.659C130.617 240.633 130.445 240.572 130.29 240.479C129.6 240.014 130.19 238.972 130.786 238.41C133.114 236.203 135.645 233.89 138.814 233.379C140.479 233.107 142.152 233.217 143.807 232.821C144.997 232.534 146.121 232.041 147.307 231.748C149.517 231.207 152.824 231.014 154.403 232.948Z" fill="#46455B"/>
<path d="M133.224 150.124C131.893 151.848 131.5 154.124 131.679 156.283C131.859 158.441 132.586 160.514 133.3 162.559C132.352 163.431 132.548 164.934 132.672 166.217C133.124 170.983 131.469 175.738 131.71 180.517C131.81 182.528 132.248 184.51 132.352 186.521C132.465 188.717 132.186 190.914 131.924 193.097C130.25 207.07 129.329 221.124 129.165 235.197C129.165 236.493 129.145 237.81 129.51 239.052C132.017 240.897 135.166 241.145 138.2 240.455C141.234 239.765 144.003 238.228 146.724 236.71C148.215 235.939 149.628 235.027 150.945 233.986C151.348 233.701 151.646 233.292 151.793 232.821C152.083 231.441 150.165 230.817 149.065 229.924C147.465 228.624 147.49 226.217 147.655 224.162L148.655 211.693C148.883 208.869 149.103 205.99 148.462 203.231C148.2 202.114 147.797 200.965 148.038 199.841C148.431 198.014 150.321 196.993 151.607 195.631C153.552 193.562 154.152 190.628 154.6 187.834C156.713 174.584 157.162 161.121 155.938 147.759C153.403 148.638 150.4 148.159 147.728 148.366C145.055 148.572 142.4 149.465 139.693 149.538C137.438 149.59 134.61 148.345 133.224 150.124Z" fill="#BBBDC8"/>
<path d="M151.483 88.6207C158.529 88.6207 164.241 82.9085 164.241 75.8621C164.241 68.8157 158.529 63.1035 151.483 63.1035C144.436 63.1035 138.724 68.8157 138.724 75.8621C138.724 82.9085 144.436 88.6207 151.483 88.6207Z" fill="#A1616A"/>
<path d="M158.693 96.8483C154.605 94.9705 150.342 93.499 145.966 92.4552C142.883 91.7207 139.362 91.2793 136.786 93.1241C136.097 93.6172 135.472 94.3931 135.621 95.2276C136.075 95.2426 136.51 95.4187 136.846 95.7244C137.183 96.0301 137.4 96.4456 137.459 96.8965C137.534 97.6276 137.176 98.3276 136.824 98.9655L133.848 104.483C133.278 105.477 132.788 106.514 132.383 107.586C131.783 109.338 131.652 111.214 131.524 113.062L131.179 118.069C130.966 121.224 130.748 124.393 131.034 127.541C131.248 129.917 131.745 132.303 131.407 134.665C131.134 136.565 130.331 138.348 129.879 140.217C129.031 143.734 129.417 147.59 127.772 150.817C128.44 150.509 129.194 150.441 129.907 150.624C134.9 151.545 138.828 155.486 143.676 156.993C144.9 155.207 146.559 153.89 147.928 152.228C148.946 150.982 149.62 149.491 149.883 147.903C150.917 149.283 151.797 150.359 152.414 151.959C152.524 152.331 152.712 152.675 152.965 152.969C153.617 153.603 154.69 153.359 155.562 153.093C159.839 151.803 164.261 151.053 168.724 150.862C169.441 150.831 169.79 150.486 170.014 149.803C170.238 149.121 170.114 148.383 169.979 147.679C169.121 143.083 168.162 138.479 168.003 133.807C167.907 131.048 168.097 128.252 167.748 125.5C167.576 124.152 167.276 122.824 166.979 121.5L164.517 110.559C164.379 109.948 163.724 109.548 163.445 108.986C162.314 106.697 160.152 105.041 159.034 102.745C158.191 100.89 158.069 98.7877 158.693 96.8483V96.8483Z" fill="#46455B"/>
<path d="M140.793 80.969C140.778 80.7904 140.82 80.6116 140.914 80.4586C141.05 80.3154 141.221 80.2097 141.41 80.1517C141.924 79.9076 142.345 79.5025 142.608 78.9979C142.871 78.4932 142.963 77.9165 142.869 77.3552L144.076 77.1035L144.114 72.9C145.907 71.9069 148.352 72.6586 150.038 71.4897C150.986 70.8276 151.472 69.7035 152.052 68.7035C152.631 67.7035 153.493 66.6966 154.645 66.6138C154.249 67.6213 154.079 68.7034 154.148 69.7838C154.216 70.8641 154.521 71.9162 155.041 72.8655C156.249 72.2544 157.257 71.3119 157.948 70.1483L158.548 73.5966C158.56 73.8091 158.651 74.0096 158.803 74.1586C159.117 74.3897 159.541 74.1 159.817 73.8138L161.379 72.2793C162.037 73.9289 162.487 75.6535 162.721 77.4138C165.286 74.9241 166.083 70.9241 165.097 67.4897C164.11 64.0552 161.528 61.2104 158.417 59.4552C155.307 57.7 151.7 56.9621 148.131 56.831C146.933 56.7609 145.731 56.8385 144.552 57.0621C143.287 57.3803 142.063 57.8431 140.903 58.4414C139.121 59.2793 137.321 60.2 135.99 61.6483C133.672 64.1724 133.152 67.8828 133.407 71.3035C133.752 75.7862 135.207 80.1138 136.9 84.2793C137.462 85.6586 138.062 87.0552 138.99 88.231C140.386 90 143.817 88.531 143.379 85.0345C143.076 82.5379 140.793 83.5 140.793 80.969Z" fill="#3F3D56"/>
<path d="M145.621 149.276C141.317 158.069 134.709 165.529 126.5 170.862C124.021 172.466 121.328 173.893 118.428 174.362C118.031 174.428 117.634 174.472 117.231 174.5C115.736 174.624 114.233 174.369 112.862 173.759C111.954 173.302 111.114 172.721 110.365 172.034C107.682 169.686 105.55 166.774 104.121 163.507C103.281 161.456 102.584 159.35 102.034 157.203C101.188 154.201 100.345 151.198 99.5034 148.193C98.6793 145.255 97.8482 142.283 97.6758 139.228C97.3965 134.266 98.8862 129.352 100.979 124.845C101.336 124.151 101.624 123.423 101.838 122.672C101.838 122.621 101.862 122.569 101.872 122.514C102.121 121.324 101.993 120.079 102.217 118.879C102.638 116.466 104.417 114.466 106.507 113.193C108.597 111.921 110.99 111.269 113.365 110.634L117.065 109.638L119.362 109.021L128.703 106.507C129.997 106.162 131.303 105.703 132.617 105.472C134.083 105.197 134.072 105.341 134.186 106.776C134.397 109.376 134.328 111.931 134.876 114.507C135.397 116.966 136.314 119.334 137.003 121.748C138.745 127.841 139.034 134.255 140.407 140.445C140.721 141.855 141.155 143.359 142.29 144.238C143.59 145.272 145.779 145.528 146.124 147.148C146.252 147.869 145.931 148.607 145.621 149.276Z" fill="#39D0FF"/>
<path opacity="0.1" d="M118.428 174.348C118.031 174.414 117.634 174.459 117.231 174.486C115.737 174.614 114.234 174.364 112.862 173.759C111.954 173.302 111.114 172.721 110.365 172.034C107.682 169.686 105.55 166.774 104.121 163.507C103.281 161.456 102.584 159.35 102.034 157.203C101.188 154.201 100.345 151.198 99.5034 148.193C98.6793 145.255 97.8482 142.283 97.6758 139.228C97.3965 134.266 98.8862 129.352 100.979 124.845C101.336 124.151 101.624 123.423 101.838 122.672C101.838 122.621 101.862 122.569 101.872 122.514C107.5 123.503 114.252 134.269 117.734 148.376C120.3 158.924 120.41 168.638 118.428 174.348Z" fill="black"/>
<path opacity="0.1" d="M128.6 137.231L127.659 137.393C126.69 134.848 125.724 132.3 124.59 129.824C124 128.531 123.362 127.255 122.865 125.921C121.003 120.797 121.321 114.717 117.869 110.497C117.623 110.183 117.341 109.898 117.031 109.648L119.328 109.031C121.339 112.211 122.757 115.728 123.514 119.414C123.886 121.214 124.097 123.055 124.703 124.786C125.22 126.099 125.81 127.382 126.472 128.628C127.783 131.314 128.769 134.248 128.6 137.231Z" fill="black"/>
<path d="M137.766 98.3793C140.245 96.2552 143.628 95.0897 146.838 95.6207C148.728 95.9276 150.483 96.7793 152.176 97.6897C155.476 99.4414 158.728 101.459 161.107 104.338C162.534 106.154 163.718 108.148 164.631 110.269C165.079 111.196 165.425 112.168 165.666 113.169C166.507 117.066 164.441 120.938 162.452 124.393L158.624 131.034C156.866 134.086 155.093 137.159 152.803 139.838C151.748 141.072 150.59 142.214 149.434 143.355L144.362 148.362C144.271 148.47 144.151 148.55 144.017 148.593C143.907 148.599 143.796 148.581 143.693 148.54C143.59 148.499 143.497 148.436 143.421 148.355L141.745 147.021C143.288 145.954 144.723 144.738 146.028 143.39C148.221 141.121 150.024 138.51 151.817 135.91L157.397 127.821C159.028 125.452 160.731 122.845 160.548 119.976C160.462 118.597 159.945 117.3 159.403 116.034C158.445 113.784 157.403 111.569 156.279 109.39C155.017 106.945 153.638 104.531 151.821 102.466C150.003 100.4 147.707 98.6724 145.062 97.9241C144.273 97.6664 143.437 97.5863 142.614 97.6897C140.8 97.9897 139.51 99.5483 138.362 100.997L134.866 105.479C134.069 106.497 133.338 107.676 133.29 105.745C133.207 102.99 135.993 100.152 137.766 98.3793Z" fill="#39D0FF"/>
<path d="M138.848 128.621C139.538 131.276 140.555 134.29 143.11 135.297C144.921 136.01 147.041 135.431 148.607 134.262C150.172 133.093 151.283 131.445 152.303 129.779C153.167 128.283 154.12 126.839 155.155 125.455C157.2 122.89 159.983 120.855 161.362 117.869C161.769 116.979 162.052 116.028 162.514 115.172C163.008 114.384 163.566 113.638 164.183 112.941C165.77 110.974 167.04 108.771 167.945 106.41C168.262 105.586 168.534 104.703 168.41 103.831C168.165 102.152 166.576 101.048 165.097 100.224C164.197 99.7241 163.255 99.2379 162.231 99.1621C160.734 99.0448 159.262 99.8517 158.341 101.034C157.455 102.258 156.96 103.721 156.921 105.231C156.817 107.069 157.176 108.979 156.576 110.717C156.259 111.528 155.82 112.286 155.276 112.965C153.339 115.557 150.941 117.77 148.203 119.493C148.128 118.189 147.845 116.905 147.366 115.69C147.103 115.021 141.966 115.69 141.297 115.8C139.972 115.993 137.407 116.145 136.572 117.407C135.738 118.669 136.772 120.79 137.11 122.062L138.848 128.621Z" fill="#A1616A"/>
<path d="M138.724 99.6448C137.961 100.275 137.25 100.967 136.6 101.714C135.069 103.559 134.321 105.959 134.128 108.348C133.934 110.738 134.262 113.138 134.672 115.5C135.045 117.62 135.485 119.724 135.993 121.814C136.134 120.238 137.41 118.934 138.89 118.366C140.369 117.797 141.993 117.859 143.569 118.09C145.597 118.39 147.576 118.962 149.452 119.79L150.179 109.593C150.332 108.218 150.324 106.829 150.155 105.455C149.926 104.18 149.428 102.969 148.694 101.902C147.961 100.835 147.008 99.936 145.9 99.2655C143.134 97.5828 141.207 97.4759 138.724 99.6448Z" fill="#46455B"/>
<path d="M268.993 149.262C268.666 146.495 267.861 143.806 266.614 141.314C265.852 139.797 264.924 138.345 264.445 136.721C264.055 135.4 263.979 134.01 263.669 132.669C263.359 131.328 262.81 130.045 262.369 128.734C259.248 119.424 261.593 109.238 260.586 99.4793C260.21 95.8793 259.107 91.931 255.986 90.0552C254.131 88.9414 251.903 88.769 249.721 88.6759L248.724 88.631L247.124 88.5517C244.807 88.4379 242.483 88.3517 240.228 88.8379C237.469 89.4414 234.2 91.3828 233.331 94.2C232.855 93.9552 232.376 93.7379 231.934 93.5345C230.158 92.7465 228.296 92.1679 226.386 91.8103C228.025 91.3976 229.606 90.7862 231.096 89.9897C234.545 87.9828 235.345 82.1207 236.048 78.2C236.752 74.2793 236.11 70.2276 234.941 66.4172C234.555 65.0652 234.029 63.757 233.372 62.5138C232.465 60.8763 231.229 59.4436 229.743 58.3052C228.257 57.1667 226.551 56.347 224.734 55.8972C222.917 55.4474 221.026 55.3772 219.18 55.6909C217.335 56.0047 215.573 56.6956 214.007 57.7207C210.79 59.8276 207.8 62.8931 205.345 65.8552C205 66.2621 203.559 67.7034 204.038 68.3103C204.307 68.6552 205.193 68.3793 206.124 67.9655C205.408 69.5836 205.039 71.3339 205.041 73.1034C205.043 75.326 205.624 77.5097 206.726 79.4397C207.829 81.3696 209.414 82.9793 211.328 84.1103L211.672 87.2828V87.3069C211.71 88.3655 211.728 89.4241 211.741 90.4793C211.741 91.2207 211.741 91.9793 211.721 92.7379C210.29 94.3569 208.538 95.6604 206.576 96.5655C208.197 96.8345 209.741 96.4552 211.245 95.8069C211 96.6539 210.59 97.4439 210.038 98.131C210.452 97.9862 210.865 97.8552 211.279 97.7172C211.063 98.0647 210.871 98.4264 210.703 98.8C210.448 99.3904 210.262 100.008 210.148 100.641C209.27 101.924 208.51 103.284 207.876 104.703V104.703C207.586 105.348 207.328 106.003 207.093 106.669V106.714C206.863 107.376 206.66 108.047 206.483 108.728C206.4 109.054 206.324 109.382 206.255 109.71C206.255 109.734 206.255 109.759 206.255 109.783C206.117 110.448 206.003 111.117 205.91 111.793C205.91 111.838 205.91 111.883 205.91 111.931C205.872 112.245 205.838 112.562 205.814 112.879C205.814 112.879 205.814 112.91 205.814 112.928C205.786 113.272 205.765 113.6 205.755 113.938C205.755 113.983 205.755 114.024 205.755 114.069C205.755 114.355 205.755 114.645 205.755 114.931V115.128C205.755 115.776 205.797 116.428 205.859 117.079C205.859 117.159 205.859 117.241 205.883 117.321C205.91 117.586 205.941 117.852 205.979 118.121C205.979 118.183 205.979 118.245 206.003 118.303C206.048 118.624 206.1 118.941 206.159 119.259C206.159 119.328 206.19 119.4 206.203 119.469C206.252 119.724 206.303 119.976 206.362 120.231L206.424 120.493C206.5 120.81 206.579 121.124 206.669 121.441C206.721 121.621 206.772 121.786 206.828 121.976C206.992 122.63 207.107 123.295 207.172 123.966L205.286 124.028C201.249 124.143 197.216 124.325 193.186 124.576C192.683 122.634 190.965 121.514 188.803 121.248C188.46 121.207 188.115 121.186 187.769 121.186V121.186C188.142 120.872 188.473 120.512 188.755 120.114C189.13 119.598 189.398 119.011 189.541 118.39C188.986 118.706 188.5 119.132 188.114 119.641C187.986 119.814 187.872 119.986 187.769 120.145V119.11C187.769 119.088 187.765 119.067 187.757 119.046C187.749 119.026 187.737 119.008 187.721 118.992C187.706 118.977 187.688 118.965 187.667 118.956C187.647 118.948 187.625 118.944 187.603 118.945H187.259C187.237 118.944 187.215 118.948 187.195 118.956C187.174 118.965 187.156 118.977 187.14 118.992C187.125 119.008 187.113 119.026 187.105 119.046C187.097 119.067 187.093 119.088 187.093 119.11V121.217H187.024H186.907C186.679 121.238 186.459 121.266 186.241 121.307C183.893 121.745 182.172 123.252 182.172 125.79C182.173 126.589 182.347 127.378 182.683 128.103C183.019 128.829 183.508 129.472 184.117 129.99C184.218 130.78 184.397 131.559 184.652 132.314C184.89 133.062 185.2 133.876 185.896 134.248C186.322 134.441 186.789 134.527 187.255 134.497C191.09 134.497 194.717 132.728 198.534 132.428C200.893 132.238 203.262 132.603 205.628 132.531C205.972 132.531 206.317 132.497 206.662 132.469C203.428 148.486 199.514 164.707 201.559 180.886C201.693 181.962 201.903 183.128 202.707 183.859C203.772 184.831 205.414 184.672 206.845 184.548C210.772 184.19 214.731 184.506 218.552 185.483C219.089 185.631 219.654 185.651 220.2 185.541C220.317 185.515 220.432 185.481 220.545 185.441L220.641 185.403C220.714 185.376 220.783 185.348 220.848 185.317L220.948 185.266L221.117 185.162C221.145 185.141 221.176 185.124 221.2 185.103C221.26 185.062 221.316 185.016 221.369 184.966L221.417 184.924C221.482 184.861 221.543 184.794 221.6 184.724L221.641 184.662C221.681 184.61 221.718 184.556 221.752 184.5C221.769 184.472 221.786 184.445 221.8 184.417C221.814 184.39 221.855 184.314 221.879 184.262C221.903 184.21 221.907 184.2 221.917 184.169C221.928 184.138 221.962 184.055 221.983 183.997C222.003 183.938 221.983 183.941 222.01 183.91C222.038 183.879 222.059 183.738 222.076 183.652V183.597C222.076 183.524 222.103 183.448 222.114 183.376C222.124 183.303 222.114 183.3 222.114 183.262C222.114 183.224 222.114 183.148 222.114 183.093V182.969C222.114 182.914 222.114 182.859 222.114 182.803V182.497C222.114 182.462 222.114 182.424 222.114 182.386C222.114 182.079 222.079 181.769 222.048 181.472C222.295 181.544 222.546 181.598 222.8 181.634V181.634C223.037 181.672 223.277 181.689 223.517 181.686H223.552C223.665 181.686 223.779 181.686 223.896 181.659C223.996 181.643 224.095 181.623 224.193 181.597H224.238C224.328 181.57 224.416 181.535 224.5 181.493L224.541 181.469C224.613 181.429 224.681 181.383 224.745 181.331L224.776 181.307C224.84 181.247 224.898 181.18 224.948 181.107L224.979 181.055C225.03 180.972 225.071 180.883 225.1 180.79C225.296 180.124 224.848 179.372 225.565 178.762C226.255 180.972 226.945 183.186 227.059 185.472C227.096 186.307 227.059 187.197 227.548 187.886C227.867 188.263 228.213 188.615 228.583 188.941C229.638 190.083 229.662 191.803 229.59 193.348C229.559 193.972 229.524 194.597 229.479 195.221C228.91 203.55 227.216 211.763 224.445 219.638C224.175 220.476 223.821 221.284 223.39 222.052C222.69 223.138 221.815 224.1 220.8 224.9C219.362 226.121 217.822 227.216 216.196 228.172C215.366 228.611 214.582 229.132 213.855 229.728C213.828 229.648 213.797 229.572 213.776 229.49C213.738 229.331 213.686 229.145 213.531 229.086C213.413 229.06 213.29 229.079 213.186 229.141C211.569 229.852 209.952 230.562 208.396 231.393C207.611 231.751 206.92 232.286 206.376 232.955C205.879 233.645 205.731 234.679 206.245 235.369C206.696 235.972 207.507 236.172 208.255 236.307C209.214 236.476 210.176 236.597 211.138 236.686C210.643 236.976 210.211 237.36 209.865 237.817C209.369 238.507 209.221 239.541 209.734 240.231C210.186 240.834 210.997 241.034 211.745 241.169C217.859 242.248 224.128 241.514 230.334 241.331C232.352 241.266 234.414 241.252 236.324 240.597C236.701 240.485 237.052 240.301 237.359 240.055C238.228 239.29 238.141 237.945 237.99 236.803L237.359 232.141C237.265 232.141 237.176 232.172 237.086 232.193C237.615 227.814 238.563 223.495 239.917 219.297C242.021 212.762 245.152 206.324 245.11 199.486C245.11 199.321 245.11 199.141 245.11 198.99C245.052 196.848 244.669 194.731 244.421 192.6C244.031 189.034 244.076 185.438 244.1 181.855C244.07 180.45 244.168 179.046 244.393 177.659C244.393 177.61 244.414 177.566 244.424 177.517L250.152 177.366C250.786 177.398 251.42 177.279 252 177.021C252.274 176.9 252.495 176.682 252.618 176.409C252.742 176.136 252.76 175.827 252.669 175.541C255.11 176.648 258.376 175.141 259.097 172.576C259.147 172.395 259.187 172.212 259.217 172.028C259.216 172.014 259.216 172 259.217 171.986C259.241 171.814 259.259 171.641 259.265 171.472C259.265 171.445 259.265 171.414 259.265 171.386C259.301 170.202 259.118 169.021 258.724 167.903C257.552 164.583 255.69 161.559 253.938 158.5C253.034 156.917 252.159 155.314 251.307 153.703L252.055 154.666C252.318 155.058 252.662 155.389 253.065 155.634C254.462 156.355 255.924 154.903 257.345 154.234C259.231 153.345 261.438 153.869 263.521 154.017C265.603 154.166 268.114 153.628 268.859 151.697C269.1 150.908 269.146 150.072 268.993 149.262V149.262ZM233.086 97.4379C233.086 98.1759 233.134 98.9241 233.193 99.6759C232.493 98.532 231.685 97.4581 230.779 96.469L233.086 97.4379Z" fill="url(#paint1_linear)"/>
<path d="M188.034 120.262C188.416 119.757 188.896 119.333 189.445 119.017C189.305 119.638 189.041 120.225 188.669 120.741C188.069 121.559 187.438 122.121 187.262 121.986C187.086 121.852 187.428 121.079 188.034 120.262Z" fill="#99D55C"/>
<path opacity="0.1" d="M188.11 120.324C188.389 119.949 188.741 119.633 189.145 119.397C189.04 119.856 188.844 120.29 188.569 120.672C188.121 121.279 187.652 121.707 187.534 121.6C187.417 121.493 187.662 120.931 188.11 120.324Z" fill="black"/>
<path d="M187.197 119.576H187.541C187.563 119.576 187.585 119.58 187.605 119.588C187.625 119.597 187.643 119.609 187.658 119.624C187.674 119.64 187.686 119.658 187.694 119.678C187.703 119.698 187.707 119.72 187.707 119.741V123.648H187.052V119.741C187.051 119.701 187.066 119.662 187.093 119.631C187.119 119.601 187.156 119.581 187.197 119.576V119.576Z" fill="#F6987E"/>
<path d="M193.207 126.407C193.207 127.87 192.626 129.273 191.591 130.308C190.556 131.343 189.153 131.924 187.69 131.924C186.226 131.924 184.823 131.343 183.788 130.308C182.754 129.273 182.172 127.87 182.172 126.407C182.172 123.879 183.872 122.383 186.193 121.945C186.687 121.854 187.188 121.809 187.69 121.81C188.035 121.81 188.381 121.831 188.724 121.872C191.276 122.19 193.207 123.714 193.207 126.407Z" fill="#FC4A4A"/>
<path opacity="0.1" d="M188.724 121.872C188.624 122.062 188.083 122.217 187.428 122.217C187 122.248 186.572 122.159 186.193 121.959C186.687 121.868 187.188 121.823 187.69 121.824C188.035 121.819 188.381 121.835 188.724 121.872Z" fill="black"/>
<path opacity="0.1" d="M188.61 131.793C187.147 131.793 185.744 131.212 184.709 130.177C183.674 129.142 183.093 127.739 183.093 126.276C183.093 123.793 184.731 122.307 186.986 121.841C186.72 121.862 186.455 121.896 186.193 121.945C183.872 122.383 182.172 123.879 182.172 126.407C182.172 127.87 182.754 129.273 183.788 130.308C184.823 131.343 186.226 131.924 187.69 131.924C188.106 131.925 188.522 131.877 188.928 131.783C188.821 131.79 188.724 131.793 188.61 131.793Z" fill="black"/>
<path d="M212.931 233.914C213.693 234.604 214.859 234.586 215.893 234.51L220.607 234.166C224.352 233.89 228.224 233.579 231.528 231.797C231.877 231.637 232.187 231.401 232.434 231.107C232.697 230.656 232.834 230.143 232.831 229.621C233.277 224.513 234.293 219.472 235.859 214.59C237.928 208.09 241.031 201.683 240.99 194.879C240.99 194.714 240.99 194.535 240.99 194.386C240.931 192.255 240.555 190.148 240.324 188.028C239.941 184.479 239.979 180.903 240.007 177.338C239.977 175.94 240.074 174.542 240.297 173.162C240.514 172.041 241.331 170.917 240.831 169.931C239.862 168.017 236.348 167.314 234.459 167.245C231.914 167.155 229.41 167.821 226.952 168.483C226.203 168.686 225.421 168.903 224.855 169.431C224.097 170.141 223.879 171.255 223.852 172.293C223.721 176.897 226.372 181.179 226.583 185.776C226.621 186.603 226.583 187.5 227.065 188.19C227.384 188.565 227.73 188.917 228.1 189.241C229.134 190.376 229.165 192.086 229.093 193.624C229.062 194.245 229.028 194.866 228.986 195.486C228.423 203.77 226.749 211.941 224.01 219.779C223.746 220.616 223.4 221.425 222.976 222.193C222.284 223.272 221.42 224.229 220.417 225.028C218.997 226.241 217.475 227.33 215.869 228.283C214.796 228.917 213.652 229.524 212.917 230.531C212.183 231.538 212.021 233.066 212.931 233.914Z" fill="#FDA8A8"/>
<path opacity="0.1" d="M212.931 233.914C213.693 234.604 214.859 234.586 215.893 234.51L220.607 234.166C224.352 233.89 228.224 233.579 231.528 231.797C231.877 231.637 232.187 231.401 232.434 231.107C232.697 230.656 232.834 230.143 232.831 229.621C233.277 224.513 234.293 219.472 235.859 214.59C237.928 208.09 241.031 201.683 240.99 194.879C240.99 194.714 240.99 194.535 240.99 194.386C240.931 192.255 240.555 190.148 240.324 188.028C239.941 184.479 239.979 180.903 240.007 177.338C239.977 175.94 240.074 174.542 240.297 173.162C240.514 172.041 241.331 170.917 240.831 169.931C239.862 168.017 236.348 167.314 234.459 167.245C231.914 167.155 229.41 167.821 226.952 168.483C226.203 168.686 225.421 168.903 224.855 169.431C224.097 170.141 223.879 171.255 223.852 172.293C223.721 176.897 226.372 181.179 226.583 185.776C226.621 186.603 226.583 187.5 227.065 188.19C227.384 188.565 227.73 188.917 228.1 189.241C229.134 190.376 229.165 192.086 229.093 193.624C229.062 194.245 229.028 194.866 228.986 195.486C228.423 203.77 226.749 211.941 224.01 219.779C223.746 220.616 223.4 221.425 222.976 222.193C222.284 223.272 221.42 224.229 220.417 225.028C218.997 226.241 217.475 227.33 215.869 228.283C214.796 228.917 213.652 229.524 212.917 230.531C212.183 231.538 212.021 233.066 212.931 233.914Z" fill="black"/>
<path d="M212.931 233.914C213.693 234.603 214.859 234.586 215.893 234.51L220.607 234.166C224.352 233.89 228.224 233.579 231.528 231.797C231.877 231.637 232.187 231.401 232.434 231.107C232.697 230.656 232.834 230.143 232.831 229.621C233.277 224.513 234.293 219.472 235.859 214.59C237.928 208.09 241.031 201.683 240.99 194.879C237.004 195.32 232.996 195.518 228.986 195.472C228.423 203.756 226.749 211.927 224.01 219.766C223.746 220.602 223.4 221.411 222.976 222.179C222.284 223.258 221.42 224.216 220.417 225.014C218.997 226.227 217.475 227.316 215.869 228.269C214.796 228.903 213.652 229.51 212.917 230.517C212.183 231.524 212.021 233.066 212.931 233.914Z" fill="#EEEFF3"/>
<path opacity="0.1" d="M212.931 233.914C213.693 234.603 214.859 234.586 215.893 234.51L220.607 234.166C224.352 233.89 228.224 233.579 231.528 231.797C231.877 231.637 232.187 231.401 232.434 231.107C232.697 230.656 232.834 230.143 232.831 229.621C233.277 224.513 234.293 219.472 235.859 214.59C237.928 208.09 241.031 201.683 240.99 194.879C237.004 195.32 232.996 195.518 228.986 195.472C228.423 203.756 226.749 211.927 224.01 219.766C223.746 220.602 223.4 221.411 222.976 222.179C222.284 223.258 221.42 224.216 220.417 225.014C218.997 226.227 217.475 227.316 215.869 228.269C214.796 228.903 213.652 229.51 212.917 230.517C212.183 231.524 212.021 233.066 212.931 233.914Z" fill="black"/>
<path d="M223.345 232.459C224.477 232.053 225.566 231.533 226.593 230.907L231.79 227.976C232.259 227.672 232.782 227.46 233.331 227.352L233.952 231.99C234.107 233.128 234.19 234.466 233.331 235.228C233.024 235.472 232.673 235.655 232.297 235.766C230.41 236.417 228.376 236.431 226.379 236.493C220.248 236.69 214.055 237.407 208.014 236.331C207.276 236.2 206.476 235.986 206.031 235.4C205.524 234.71 205.669 233.71 206.159 233.01C206.695 232.345 207.379 231.813 208.155 231.455C209.693 230.628 211.29 229.924 212.886 229.217C212.985 229.159 213.102 229.139 213.214 229.162C213.369 229.214 213.417 229.403 213.459 229.562C213.738 230.693 214.648 231.586 215.686 232.121C215.7 232.121 221.048 233.19 223.345 232.459Z" fill="#BBBDC8"/>
<path opacity="0.1" d="M223.345 232.459C224.477 232.053 225.566 231.533 226.593 230.907L231.79 227.976C232.259 227.672 232.782 227.46 233.331 227.352L233.952 231.99C234.107 233.128 234.19 234.466 233.331 235.228C233.024 235.472 232.673 235.655 232.297 235.766C230.41 236.417 228.376 236.431 226.379 236.493C220.248 236.69 214.055 237.407 208.014 236.331C207.276 236.2 206.476 235.986 206.031 235.4C205.524 234.71 205.669 233.71 206.159 233.01C206.695 232.345 207.379 231.813 208.155 231.455C209.693 230.628 211.29 229.924 212.886 229.217C212.985 229.159 213.102 229.139 213.214 229.162C213.369 229.214 213.417 229.403 213.459 229.562C213.738 230.693 214.648 231.586 215.686 232.121C215.7 232.121 221.048 233.19 223.345 232.459Z" fill="black"/>
<path d="M216.379 238.741C217.141 239.431 218.307 239.414 219.341 239.338L224.055 238.993C227.8 238.717 231.672 238.407 234.976 236.624C235.325 236.464 235.635 236.229 235.883 235.934C236.145 235.483 236.282 234.97 236.279 234.448C236.725 229.341 237.741 224.299 239.307 219.417C241.376 212.917 244.479 206.51 244.438 199.707C244.438 199.541 244.438 199.362 244.438 199.214C244.379 197.083 244.003 194.976 243.772 192.855C243.39 189.307 243.428 185.731 243.455 182.166C243.426 180.768 243.523 179.37 243.745 177.99C243.962 176.869 244.779 175.745 244.279 174.759C243.31 172.845 239.797 172.141 237.907 172.072C235.362 171.983 232.859 172.648 230.4 173.31C229.652 173.514 228.869 173.731 228.303 174.259C227.545 174.969 227.328 176.083 227.3 177.121C227.169 181.724 229.821 186.007 230.031 190.603C230.069 191.431 230.031 192.328 230.514 193.017C230.832 193.393 231.178 193.744 231.548 194.069C232.583 195.203 232.614 196.914 232.541 198.452C232.51 199.072 232.476 199.693 232.434 200.314C231.871 208.598 230.198 216.769 227.459 224.607C227.195 225.444 226.848 226.252 226.424 227.021C225.732 228.099 224.868 229.057 223.865 229.855C222.445 231.068 220.923 232.157 219.317 233.11C218.245 233.745 217.1 234.352 216.365 235.359C215.631 236.366 215.469 237.893 216.379 238.741Z" fill="#FDA8A8"/>
<path d="M216.379 238.741C217.141 239.431 218.307 239.414 219.341 239.338L224.055 238.993C227.8 238.717 231.672 238.407 234.976 236.624C235.325 236.464 235.635 236.229 235.883 235.934C236.145 235.483 236.282 234.97 236.279 234.448C236.725 229.341 237.741 224.299 239.307 219.417C241.376 212.917 244.479 206.51 244.438 199.707C240.452 200.148 236.444 200.346 232.434 200.3C231.871 208.584 230.198 216.755 227.459 224.593C227.195 225.43 226.848 226.239 226.424 227.007C225.732 228.085 224.868 229.043 223.865 229.841C222.445 231.054 220.923 232.143 219.317 233.097C218.245 233.731 217.1 234.338 216.365 235.345C215.631 236.352 215.469 237.893 216.379 238.741Z" fill="#EEEFF3"/>
<path d="M226.793 237.286C227.926 236.88 229.014 236.36 230.041 235.734L235.238 232.803C235.707 232.499 236.231 232.288 236.779 232.179L237.4 236.817C237.555 237.955 237.638 239.293 236.779 240.055C236.473 240.3 236.121 240.483 235.745 240.593C233.859 241.245 231.824 241.259 229.828 241.321C223.697 241.517 217.503 242.234 211.462 241.159C210.724 241.028 209.924 240.814 209.479 240.228C208.972 239.538 209.117 238.538 209.607 237.838C210.144 237.173 210.827 236.64 211.603 236.283C213.141 235.455 214.738 234.752 216.334 234.045C216.433 233.986 216.55 233.967 216.662 233.99C216.817 234.041 216.865 234.231 216.907 234.39C217.186 235.521 218.097 236.414 219.134 236.948C219.148 236.948 224.497 238.017 226.793 237.286Z" fill="#BBBDC8"/>
<path d="M209.693 98.8655C211.372 96.7966 211.417 93.9069 211.376 91.2517C211.376 90.2172 211.345 89.1483 211.307 88.0965V88.0724C211.26 86.1395 211.056 84.2135 210.696 82.3138V82.3138C210.515 81.4021 210.273 80.5036 209.972 79.6241C210.2 79.5724 210.428 79.5241 210.662 79.4827C214.277 78.7689 217.996 78.7689 221.61 79.4827C222.234 79.6069 223.814 79.5793 224.714 79.8862C224.97 79.9474 225.193 80.104 225.338 80.3241C225.514 80.6931 225.152 81.762 224.89 82.7103C224.746 83.1377 224.664 83.5837 224.648 84.0345C224.683 84.458 224.748 84.8786 224.841 85.2931C225.003 86.0552 225.217 86.8103 225.317 87.5827C225.493 88.9 225.338 90.2414 225.424 91.569C225.51 92.8965 225.893 94.2931 226.903 95.1586C221.033 95.6619 215.25 96.9075 209.693 98.8655V98.8655Z" fill="#FDA8A8"/>
<path opacity="0.1" d="M226.217 85.1414C225.759 85.1793 225.303 85.2241 224.838 85.2758C220.245 85.7662 215.712 86.7134 211.307 88.1034V88.0793L210.696 82.3207C210.696 81.9759 210.696 81.631 210.696 81.2689C210.696 80.6793 210.679 80.0827 210.665 79.4896C214.28 78.7758 217.999 78.7758 221.614 79.4896C222.238 79.6138 223.817 79.5862 224.717 79.8931C224.717 80.4552 224.717 81.0172 224.738 81.5793C224.761 81.962 224.812 82.3424 224.893 82.7172V82.7172C225.058 83.6481 225.523 84.4995 226.217 85.1414V85.1414Z" fill="black"/>
<path d="M217.517 86.7241C224.564 86.7241 230.276 81.0119 230.276 73.9655C230.276 66.9191 224.564 61.2069 217.517 61.2069C210.471 61.2069 204.759 66.9191 204.759 73.9655C204.759 81.0119 210.471 86.7241 217.517 86.7241Z" fill="#FDA8A8"/>
<path d="M206.31 122.072C204.045 114.055 206.114 105.445 211.524 99.1138C212.728 97.7034 213.938 96.2552 215.517 95.4103C217.397 94.4103 219.621 94.3759 221.748 94.3552C223.628 94.3552 225.566 94.3552 227.293 95.1034C229.628 96.1 231.238 98.2655 232.597 100.414C234.045 102.703 235.355 105.183 235.576 107.886C235.693 109.49 235.41 111.117 235.648 112.714C235.952 114.738 237.079 116.552 237.541 118.545C237.793 119.621 237.845 120.734 238.007 121.831C238.251 123.331 238.606 124.811 239.069 126.259C242.495 137.635 247.187 148.59 253.055 158.921C254.779 161.966 256.624 164.976 257.783 168.276C258.307 169.769 258.686 171.379 258.259 172.917C257.545 175.469 254.321 176.969 251.91 175.869C252 176.152 251.981 176.459 251.859 176.73C251.737 177.001 251.52 177.217 251.248 177.338C250.675 177.597 250.049 177.715 249.421 177.683L228.124 178.248C227.565 178.262 227.009 178.338 226.466 178.472C223.962 179.114 224.903 180.197 224.634 181.1C224.307 182.203 222.724 182.114 221.621 181.79C221.79 183.4 221.828 185.369 219.748 185.838C219.209 185.947 218.651 185.928 218.121 185.783C214.348 184.811 210.435 184.496 206.555 184.852C205.134 184.983 203.51 185.141 202.459 184.162C201.666 183.434 201.459 182.276 201.324 181.207C199.203 164.31 203.565 147.39 206.841 130.697C207.283 128.445 207.124 124.797 206.462 122.597L206.31 122.072Z" fill="#F75842"/>
<path d="M234.586 110.428C235.086 111.869 235.71 113.286 235.879 114.803C236.014 116.017 235.852 117.245 235.924 118.462C236.056 119.814 236.335 121.147 236.755 122.438C237.419 124.949 238.238 127.417 239.207 129.828C239.669 130.914 240.203 132.11 239.831 133.231C239.459 134.352 238.303 135.045 237.972 136.159C237.628 137.334 238.317 138.572 239.197 139.431C240.076 140.29 241.176 140.9 241.99 141.814C242.876 142.81 243.369 144.083 243.993 145.262C244.879 146.822 245.896 148.304 247.031 149.693L251.2 155.103C251.46 155.494 251.801 155.823 252.2 156.069C253.579 156.786 255.024 155.341 256.428 154.69C258.29 153.803 260.469 154.324 262.528 154.472C264.586 154.621 267.066 154.086 267.8 152.162C268.043 151.381 268.094 150.553 267.948 149.748C267.626 146.997 266.83 144.322 265.597 141.841C264.845 140.331 263.928 138.886 263.455 137.269C263.069 135.955 262.993 134.572 262.686 133.238C262.379 131.903 261.838 130.628 261.403 129.324C258.321 120.062 260.638 109.928 259.641 100.217C259.272 96.6345 258.179 92.7069 255.097 90.8414C253.266 89.7345 251.066 89.5621 248.89 89.4621L247.907 89.4172L246.324 89.3379C244.034 89.2241 241.738 89.1379 239.507 89.6241C236.369 90.3138 232.593 92.7517 232.469 96.2552C232.334 101.067 233.051 105.865 234.586 110.428Z" fill="#39D0FF"/>
<path opacity="0.1" d="M246.341 89.3242C246.765 91.6705 246.976 94.0503 246.972 96.4345C247.034 103.241 247.769 110.021 248.507 116.779L248.993 121.262C249.083 122.09 249.19 122.959 249.683 123.624C250.176 124.29 251.21 124.638 251.862 124.124C252.262 122.541 252.183 120.879 252.103 119.248C251.931 115.779 251.76 112.309 251.59 108.838C251.424 105.459 251.245 102.076 250.834 98.7173C250.513 96.1158 250.038 93.5355 249.414 90.9897C249.295 90.4623 249.13 89.9465 248.921 89.4483L247.938 89.4035L246.341 89.3242Z" fill="black"/>
<path d="M223.81 92.2414C221.697 91.9379 219.483 91.7827 217.476 92.5172C215.559 93.2241 214.028 94.6758 212.648 96.2034C211.708 97.1878 210.93 98.3157 210.345 99.5448C209.169 102.248 209.628 105.365 210.345 108.228C212.3 116.11 216.183 123.714 222.414 128.917C224.311 130.458 226.33 131.842 228.452 133.055C231.21 134.672 234.059 136.159 237.11 137.093C237.962 137.355 238.869 137.576 239.741 137.39C240.614 137.203 241.438 136.497 241.466 135.603C236.466 132.793 231.983 129.162 227.531 125.548C226.311 124.607 225.168 123.569 224.114 122.445C222.534 120.669 221.421 118.524 219.89 116.707C218.51 115.076 216.786 113.7 215.752 111.834C215.102 110.56 214.668 109.188 214.466 107.772C213.955 104.886 213.859 101.821 215.003 99.1207C216.148 96.4207 218.772 94.2034 221.703 94.2517C223.207 94.2758 224.638 94.8724 226.024 95.4552L234.748 99.1379C234.641 99.0896 235.248 97.5758 235.221 97.3655C235.138 96.7069 235.021 96.6965 234.531 96.1965C233.697 95.3621 232.4 94.7759 231.341 94.2896C228.942 93.2496 226.406 92.5598 223.81 92.2414V92.2414Z" fill="#39D0FF"/>
<path d="M206.445 71.5517C208.934 70.9987 211.237 69.8108 213.131 68.1035L211.307 77.6759C213.124 76.8418 214.886 75.8927 216.583 74.8345C216.828 79.2138 216.472 83.6931 214.859 87.769C213.245 91.8448 210.269 95.4931 206.276 97.3035C209.821 97.8966 213.003 95.3517 216.159 93.6311C218.359 92.4345 222.117 93.6655 224.524 92.9414C226.566 92.3414 228.662 91.8173 230.503 90.7449C233.924 88.7483 234.7 82.9173 235.393 79.0207C236.086 75.1242 235.455 71.0897 234.303 67.2966C233.92 65.9532 233.401 64.6523 232.755 63.4138C231.867 61.7874 230.651 60.3629 229.184 59.2304C227.717 58.0978 226.031 57.2818 224.233 56.834C222.435 56.3861 220.563 56.3161 218.737 56.6284C216.91 56.9407 215.168 57.6285 213.621 58.6483C210.441 60.7414 207.493 63.8207 205.066 66.7414C204.721 67.1448 203.297 68.5793 203.769 69.1828C204.345 69.9138 207.724 67.8311 208.297 67.5483C208.131 68.1724 207.103 71.3897 206.445 71.5517Z" fill="#FFD566"/>
<g opacity="0.1">
<path opacity="0.1" d="M220.793 183.079C220.254 183.189 219.696 183.17 219.165 183.024C215.392 182.052 211.48 181.737 207.6 182.093C206.179 182.224 204.555 182.383 203.503 181.403C202.71 180.676 202.503 179.517 202.369 178.448C200.248 161.552 204.61 144.631 207.886 127.938C208.328 125.686 208.169 122.038 207.507 119.838L207.352 119.303C206.075 114.745 206.151 109.913 207.569 105.397C205.216 110.638 204.771 116.537 206.31 122.072L206.465 122.607C207.128 124.807 207.286 128.469 206.845 130.707C203.579 147.4 199.217 164.331 201.328 181.217C201.462 182.286 201.672 183.445 202.462 184.172C203.497 185.141 205.138 184.983 206.559 184.862C210.439 184.506 214.351 184.821 218.124 185.793C218.655 185.939 219.212 185.958 219.752 185.848C221.448 185.466 221.734 184.083 221.693 182.714C221.418 182.889 221.113 183.013 220.793 183.079Z" fill="black"/>
<path opacity="0.1" d="M252.952 173.11C253.041 173.394 253.023 173.7 252.901 173.971C252.778 174.242 252.561 174.458 252.29 174.579C251.717 174.838 251.09 174.956 250.462 174.924L229.165 175.49C228.606 175.504 228.05 175.579 227.507 175.714C225.003 176.355 225.945 177.438 225.676 178.341C225.348 179.445 223.765 179.355 222.662 179.031C222.765 180.014 222.817 181.128 222.372 181.955C223.341 182.1 224.383 181.972 224.641 181.1C224.9 180.228 223.969 179.114 226.472 178.472C227.015 178.337 227.572 178.262 228.131 178.248L249.414 177.683C250.042 177.715 250.668 177.597 251.241 177.338C251.513 177.217 251.73 177 251.852 176.73C251.974 176.459 251.993 176.152 251.903 175.869C254.317 176.969 257.538 175.469 258.252 172.917C258.359 172.531 258.419 172.132 258.431 171.731C257.141 173.276 254.807 173.965 252.952 173.11Z" fill="black"/>
</g>
<path d="M224.383 101.055C226.214 104.95 227.834 108.941 229.234 113.01C230.365 116.29 231.362 119.734 230.986 123.183C230.61 126.631 228.572 130.114 225.262 131.2C223.855 131.662 222.348 131.666 220.869 131.7C217.326 131.783 213.79 132.069 210.279 132.555C208.645 132.825 206.998 133.008 205.345 133.103C203.007 133.179 200.669 132.814 198.338 133.003C194.565 133.31 190.983 135.072 187.197 135.072C186.735 135.101 186.273 135.016 185.852 134.824C185.162 134.452 184.855 133.645 184.621 132.9C184.093 131.217 183.679 129.286 184.572 127.766C185.672 125.893 188.172 125.517 190.341 125.352C195.224 125.007 200.113 124.766 205.007 124.628C209.183 124.51 213.707 124.352 216.945 121.71C217.163 121.554 217.342 121.349 217.465 121.11C217.588 120.707 217.573 120.274 217.424 119.879C216.141 114.864 215.59 109.69 215.79 104.517C215.767 104.053 215.888 103.594 216.134 103.2C216.427 102.884 216.808 102.663 217.228 102.566C220.118 101.638 223.214 101.552 226.152 102.317" fill="#FDA8A8"/>
<path d="M215.703 104.514C215.203 104.686 214.767 105.007 214.455 105.434C214.593 103.997 214.407 102.545 214.434 101.097C214.462 99.6483 214.731 98.1379 215.645 97.0138C216.807 95.5793 218.783 95.0655 220.631 95.0172C223.314 94.9448 226.09 95.7241 228.055 97.5517C229.32 98.7362 230.142 100.318 230.383 102.034C230.445 102.507 230.652 104.279 230.159 104.583C229.728 104.852 228.09 103.924 227.562 103.776C223.645 102.625 219.448 102.886 215.703 104.514Z" fill="#F75842"/>
<path opacity="0.1" d="M163.552 23.1034C164.885 23.1034 165.965 22.0227 165.965 20.6896C165.965 19.3565 164.885 18.2758 163.552 18.2758C162.219 18.2758 161.138 19.3565 161.138 20.6896C161.138 22.0227 162.219 23.1034 163.552 23.1034Z" fill="#39D0FF"/>
<path opacity="0.1" d="M179.759 69.6552C181.092 69.6552 182.172 68.5745 182.172 67.2414C182.172 65.9083 181.092 64.8276 179.759 64.8276C178.425 64.8276 177.345 65.9083 177.345 67.2414C177.345 68.5745 178.425 69.6552 179.759 69.6552Z" fill="#39D0FF"/>
<path opacity="0.1" d="M133.897 25.5173C135.23 25.5173 136.31 24.4366 136.31 23.1035C136.31 21.7704 135.23 20.6897 133.897 20.6897C132.563 20.6897 131.483 21.7704 131.483 23.1035C131.483 24.4366 132.563 25.5173 133.897 25.5173Z" fill="#39D0FF"/>
<path opacity="0.1" d="M59.7586 139.31C63.1866 139.31 65.9655 136.531 65.9655 133.103C65.9655 129.675 63.1866 126.897 59.7586 126.897C56.3306 126.897 53.5517 129.675 53.5517 133.103C53.5517 136.531 56.3306 139.31 59.7586 139.31Z" fill="#39D0FF"/>
<path opacity="0.1" d="M309.759 36.8965C311.092 36.8965 312.172 35.8159 312.172 34.4828C312.172 33.1497 311.092 32.069 309.759 32.069C308.425 32.069 307.345 33.1497 307.345 34.4828C307.345 35.8159 308.425 36.8965 309.759 36.8965Z" fill="#39D0FF"/>
<path opacity="0.1" d="M312.517 75.1724C316.897 75.1724 320.448 71.6215 320.448 67.2414C320.448 62.8612 316.897 59.3103 312.517 59.3103C308.137 59.3103 304.586 62.8612 304.586 67.2414C304.586 71.6215 308.137 75.1724 312.517 75.1724Z" fill="#39D0FF"/>
<path opacity="0.1" d="M325.276 47.2414C326.609 47.2414 327.69 46.1607 327.69 44.8276C327.69 43.4945 326.609 42.4138 325.276 42.4138C323.943 42.4138 322.862 43.4945 322.862 44.8276C322.862 46.1607 323.943 47.2414 325.276 47.2414Z" fill="#39D0FF"/>
<path opacity="0.1" d="M303.897 91.3793C305.23 91.3793 306.31 90.2986 306.31 88.9655C306.31 87.6324 305.23 86.5517 303.897 86.5517C302.563 86.5517 301.483 87.6324 301.483 88.9655C301.483 90.2986 302.563 91.3793 303.897 91.3793Z" fill="#39D0FF"/>
<path opacity="0.1" d="M158.724 42.4138C160.057 42.4138 161.138 41.3331 161.138 40C161.138 38.6669 160.057 37.5862 158.724 37.5862C157.391 37.5862 156.31 38.6669 156.31 40C156.31 41.3331 157.391 42.4138 158.724 42.4138Z" fill="#39D0FF"/>
<path opacity="0.1" d="M68.3792 164.483C69.7124 164.483 70.793 163.402 70.793 162.069C70.793 160.736 69.7124 159.655 68.3792 159.655C67.0461 159.655 65.9655 160.736 65.9655 162.069C65.9655 163.402 67.0461 164.483 68.3792 164.483Z" fill="#39D0FF"/>
<path opacity="0.1" d="M64.5862 109.31C65.9193 109.31 67 108.23 67 106.897C67 105.563 65.9193 104.483 64.5862 104.483C63.2531 104.483 62.1724 105.563 62.1724 106.897C62.1724 108.23 63.2531 109.31 64.5862 109.31Z" fill="#39D0FF"/>
<path opacity="0.1" d="M197 20.6896C198.333 20.6896 199.414 19.609 199.414 18.2759C199.414 16.9428 198.333 15.8621 197 15.8621C195.667 15.8621 194.586 16.9428 194.586 18.2759C194.586 19.609 195.667 20.6896 197 20.6896Z" fill="#39D0FF"/>
<path opacity="0.1" d="M204.931 42.4138C206.264 42.4138 207.345 41.3331 207.345 40C207.345 38.6669 206.264 37.5862 204.931 37.5862C203.598 37.5862 202.517 38.6669 202.517 40C202.517 41.3331 203.598 42.4138 204.931 42.4138Z" fill="#39D0FF"/>
</g>
<defs>
<linearGradient id="paint0_linear" x1="133.055" y1="242.976" x2="133.055" y2="56.5517" gradientUnits="userSpaceOnUse">
<stop stop-color="#808080" stop-opacity="0.25"/>
<stop offset="0.54" stop-color="#808080" stop-opacity="0.12"/>
<stop offset="1" stop-color="#808080" stop-opacity="0.1"/>
</linearGradient>
<linearGradient id="paint1_linear" x1="62061.5" y1="146918" x2="62061.5" y2="46337.8" gradientUnits="userSpaceOnUse">
<stop stop-color="#808080" stop-opacity="0.25"/>
<stop offset="0.54" stop-color="#808080" stop-opacity="0.12"/>
<stop offset="1" stop-color="#808080" stop-opacity="0.1"/>
</linearGradient>
<clipPath id="clip0">
<rect width="373.103" height="250" fill="white" transform="translate(0.448242)"/>
</clipPath>
</defs>
</svg>
